<svg width="1466" height="512" viewBox="0 0 1466 512" fill="none" xmlns="http://www.w3.org/2000/svg">
<path d="M126.207 315.212C144.018 338.974 172.523 354.366 204.65 354.366C258.617 354.366 302.366 310.931 302.366 257.351" stroke="white" stroke-width="11"/>
<path d="M166.341 262.24C160.671 260.514 160.671 252.486 166.341 250.76L188.134 244.127C190.047 243.545 191.545 242.047 192.127 240.134L198.76 218.341C200.486 212.671 208.514 212.671 210.24 218.341L216.873 240.134C217.455 242.047 218.953 243.545 220.866 244.127L242.659 250.76C248.329 252.486 248.329 260.514 242.659 262.24L220.866 268.873C218.953 269.455 217.455 270.953 216.873 272.866L210.24 294.659C208.514 300.329 200.486 300.329 198.76 294.659L192.127 272.866C191.545 270.953 190.047 269.455 188.134 268.873L166.341 262.24Z" fill="white"/>
<circle cx="204.5" cy="256.5" r="163.5" stroke="white" stroke-width="10"/>
<path d="M533.816 240.386C532.04 240.09 530.116 239.868 528.044 239.72C525.972 239.424 524.122 239.276 522.494 239.276C515.242 239.276 509.47 240.608 505.178 243.272C501.034 245.788 498.962 249.932 498.962 255.704C498.962 259.552 499.776 262.512 501.404 264.584C503.032 266.656 504.956 268.21 507.176 269.246C509.544 270.134 511.986 270.726 514.502 271.022C517.166 271.17 519.46 271.244 521.384 271.244C523.604 271.244 525.824 271.096 528.044 270.8C530.264 270.356 532.188 269.986 533.816 269.69V240.386ZM533.816 217.52C533.816 213.968 533.224 211.082 532.04 208.862C530.856 206.642 529.228 204.94 527.156 203.756C525.084 202.424 522.494 201.536 519.386 201.092C516.426 200.648 513.096 200.426 509.396 200.426C501.404 200.426 492.894 201.98 483.866 205.088C481.794 201.24 480.24 197.614 479.204 194.21C478.168 190.806 477.65 186.736 477.65 182C484.162 179.78 490.674 178.152 497.186 177.116C503.698 176.08 509.766 175.562 515.39 175.562C530.782 175.562 542.77 179.262 551.354 186.662C560.086 194.062 564.452 205.902 564.452 222.182V288.782C559.272 290.41 552.982 291.964 545.582 293.444C538.182 294.924 529.82 295.664 520.496 295.664C512.948 295.664 505.992 294.998 499.628 293.666C493.412 292.334 488.01 290.114 483.422 287.006C478.982 283.898 475.504 279.902 472.988 275.018C470.62 270.134 469.436 264.14 469.436 257.036C469.436 249.932 470.916 244.012 473.876 239.276C476.984 234.392 480.906 230.544 485.642 227.732C490.526 224.772 495.928 222.7 501.848 221.516C507.768 220.184 513.688 219.518 519.608 219.518C523.9 219.518 528.636 219.74 533.816 220.184V217.52ZM591.638 130.718C596.966 129.83 602.22 129.386 607.4 129.386C612.432 129.386 617.612 129.83 622.94 130.718V247.268C622.94 251.856 623.162 255.556 623.606 258.368C624.198 261.18 625.012 263.4 626.048 265.028C627.232 266.508 628.712 267.544 630.488 268.136C632.264 268.728 634.484 269.024 637.148 269.024C638.332 269.024 639.59 268.95 640.922 268.802C642.402 268.654 643.808 268.432 645.14 268.136C646.768 274.204 647.582 280.124 647.582 285.896C647.582 287.08 647.582 288.19 647.582 289.226C647.582 290.114 647.434 291.15 647.138 292.334C644.77 293.074 641.884 293.592 638.48 293.888C635.224 294.184 632.19 294.332 629.378 294.332C617.982 294.332 608.806 291.224 601.85 285.008C595.042 278.644 591.638 268.358 591.638 254.15V130.718ZM733.323 130.718C735.987 130.274 738.577 129.978 741.093 129.83C743.757 129.682 746.347 129.608 748.863 129.608C751.379 129.608 753.969 129.682 756.633 129.83C759.297 129.978 761.961 130.274 764.625 130.718V289.226C757.669 291.298 750.565 292.852 743.313 293.888C736.209 295.072 727.551 295.664 717.339 295.664C709.495 295.664 701.947 294.628 694.695 292.556C687.591 290.336 681.301 286.932 675.825 282.344C670.349 277.608 665.983 271.54 662.727 264.14C659.619 256.74 658.065 247.712 658.065 237.056C658.065 228.62 659.397 220.702 662.061 213.302C664.873 205.754 668.795 199.242 673.827 193.766C679.007 188.29 685.223 183.998 692.475 180.89C699.727 177.634 707.793 176.006 716.673 176.006C719.337 176.006 722.075 176.154 724.887 176.45C727.847 176.598 730.659 177.042 733.323 177.782V130.718ZM733.323 201.98C730.363 201.24 727.921 200.796 725.997 200.648C724.221 200.352 721.927 200.204 719.115 200.204C714.231 200.204 709.939 201.24 706.239 203.312C702.687 205.236 699.727 207.9 697.359 211.304C694.991 214.56 693.215 218.482 692.031 223.07C690.995 227.51 690.477 232.172 690.477 237.056C690.477 243.124 691.217 248.304 692.697 252.596C694.177 256.74 696.175 260.07 698.691 262.586C701.355 265.102 704.463 266.952 708.015 268.136C711.567 269.172 715.415 269.69 719.559 269.69C722.075 269.69 724.369 269.616 726.441 269.468C728.513 269.172 730.807 268.654 733.323 267.914V201.98ZM795.237 293C794.349 287.524 793.905 282.122 793.905 276.794C793.905 271.466 794.349 265.99 795.237 260.366C800.713 259.478 806.115 259.034 811.443 259.034C816.771 259.034 822.247 259.478 827.871 260.366C828.759 265.99 829.203 271.392 829.203 276.572C829.203 282.048 828.759 287.524 827.871 293C822.247 293.888 816.845 294.332 811.665 294.332C806.189 294.332 800.713 293.888 795.237 293Z" fill="white"/>
<path d="M472.77 356.455H465.815C465.672 355.884 465.565 355.242 465.494 354.529C465.423 353.744 465.387 352.995 465.387 352.282C465.387 351.569 465.423 350.855 465.494 350.142C465.565 349.357 465.672 348.68 465.815 348.109H483.149V403C482.364 403.143 481.473 403.25 480.474 403.321C479.547 403.392 478.691 403.428 477.906 403.428C477.193 403.428 476.337 403.392 475.338 403.321C474.411 403.25 473.555 403.143 472.77 403V356.455ZM470.416 336.018C470.273 335.162 470.166 334.235 470.095 333.236C470.095 332.237 470.095 331.346 470.095 330.561C470.095 329.776 470.095 328.885 470.095 327.886C470.166 326.887 470.273 325.996 470.416 325.211C471.343 325.068 472.342 324.961 473.412 324.89C474.482 324.819 475.409 324.783 476.194 324.783C476.979 324.783 477.906 324.819 478.976 324.89C480.046 324.961 481.009 325.068 481.865 325.211C482.008 325.996 482.079 326.887 482.079 327.886C482.15 328.885 482.186 329.776 482.186 330.561C482.186 331.346 482.15 332.237 482.079 333.236C482.079 334.235 482.008 335.162 481.865 336.018C481.009 336.161 480.046 336.268 478.976 336.339C477.977 336.41 477.086 336.446 476.301 336.446C475.445 336.446 474.482 336.41 473.412 336.339C472.342 336.268 471.343 336.161 470.416 336.018ZM500.385 348.109C501.17 347.966 501.919 347.859 502.632 347.788C503.417 347.717 504.202 347.681 504.986 347.681C505.771 347.681 506.484 347.717 507.126 347.788C507.84 347.859 508.589 347.966 509.373 348.109C509.587 349.179 509.801 350.641 510.015 352.496C510.229 354.279 510.336 355.777 510.336 356.99C511.05 355.777 511.941 354.565 513.011 353.352C514.153 352.139 515.437 351.069 516.863 350.142C518.29 349.143 519.931 348.359 521.785 347.788C523.64 347.146 525.673 346.825 527.884 346.825C534.162 346.825 538.798 348.644 541.794 352.282C544.79 355.849 546.288 361.163 546.288 368.225V403C545.504 403.143 544.612 403.25 543.613 403.321C542.615 403.392 541.723 403.428 540.938 403.428C540.154 403.428 539.262 403.392 538.263 403.321C537.336 403.25 536.48 403.143 535.695 403V371.114C535.695 366.049 534.911 362.34 533.341 359.986C531.772 357.561 529.275 356.348 525.851 356.348C523.854 356.348 521.964 356.705 520.18 357.418C518.397 358.131 516.828 359.237 515.472 360.735C514.117 362.233 513.011 364.195 512.155 366.62C511.371 368.974 510.978 371.827 510.978 375.18V403C510.194 403.143 509.302 403.25 508.303 403.321C507.376 403.392 506.52 403.428 505.735 403.428C504.951 403.428 504.059 403.392 503.06 403.321C502.062 403.25 501.17 403.143 500.385 403V348.109ZM561.282 393.049C563.208 393.834 565.312 394.476 567.595 394.975C569.949 395.403 572.267 395.617 574.55 395.617C576.19 395.617 577.76 395.439 579.258 395.082C580.756 394.725 582.04 394.19 583.11 393.477C584.251 392.764 585.143 391.908 585.785 390.909C586.498 389.839 586.855 388.662 586.855 387.378C586.855 385.951 586.569 384.774 585.999 383.847C585.499 382.92 584.786 382.135 583.859 381.493C583.003 380.851 581.968 380.316 580.756 379.888C579.614 379.389 578.366 378.925 577.011 378.497L573.266 377.106C568.7 375.394 565.383 373.468 563.315 371.328C561.246 369.188 560.212 366.299 560.212 362.661C560.212 357.81 561.924 353.958 565.348 351.105C568.843 348.252 573.943 346.825 580.649 346.825C583.431 346.825 586.141 347.11 588.781 347.681C591.491 348.18 593.845 348.787 595.843 349.5C595.7 350.927 595.415 352.353 594.987 353.78C594.63 355.207 594.166 356.526 593.596 357.739C592.026 357.168 590.136 356.633 587.925 356.134C585.785 355.563 583.466 355.278 580.97 355.278C578.33 355.278 575.976 355.742 573.908 356.669C571.91 357.596 570.912 359.237 570.912 361.591C570.912 362.804 571.161 363.838 571.661 364.694C572.16 365.55 572.838 366.299 573.694 366.941C574.55 367.512 575.513 368.011 576.583 368.439C577.724 368.867 578.937 369.295 580.221 369.723L584.929 371.328C586.641 371.899 588.246 372.576 589.744 373.361C591.313 374.146 592.633 375.144 593.703 376.357C594.844 377.498 595.736 378.925 596.378 380.637C597.091 382.278 597.448 384.275 597.448 386.629C597.448 389.268 596.913 391.694 595.843 393.905C594.773 396.045 593.239 397.9 591.242 399.469C589.316 400.967 586.962 402.144 584.18 403C581.398 403.856 578.33 404.284 574.978 404.284C571.554 404.284 568.558 404.034 565.99 403.535C563.422 403.107 561.032 402.501 558.821 401.716C558.963 400.289 559.249 398.863 559.677 397.436C560.176 395.938 560.711 394.476 561.282 393.049ZM614.148 356.455H607.193C607.05 355.884 606.943 355.242 606.872 354.529C606.801 353.744 606.765 352.995 606.765 352.282C606.765 351.569 606.801 350.855 606.872 350.142C606.943 349.357 607.05 348.68 607.193 348.109H624.527V403C623.742 403.143 622.851 403.25 621.852 403.321C620.925 403.392 620.069 403.428 619.284 403.428C618.571 403.428 617.715 403.392 616.716 403.321C615.789 403.25 614.933 403.143 614.148 403V356.455ZM611.794 336.018C611.651 335.162 611.544 334.235 611.473 333.236C611.473 332.237 611.473 331.346 611.473 330.561C611.473 329.776 611.473 328.885 611.473 327.886C611.544 326.887 611.651 325.996 611.794 325.211C612.721 325.068 613.72 324.961 614.79 324.89C615.86 324.819 616.787 324.783 617.572 324.783C618.357 324.783 619.284 324.819 620.354 324.89C621.424 324.961 622.387 325.068 623.243 325.211C623.386 325.996 623.457 326.887 623.457 327.886C623.528 328.885 623.564 329.776 623.564 330.561C623.564 331.346 623.528 332.237 623.457 333.236C623.457 334.235 623.386 335.162 623.243 336.018C622.387 336.161 621.424 336.268 620.354 336.339C619.355 336.41 618.464 336.446 617.679 336.446C616.823 336.446 615.86 336.41 614.79 336.339C613.72 336.268 612.721 336.161 611.794 336.018ZM671.188 395.938C677.537 396.081 682.138 397.436 684.991 400.004C687.844 402.572 689.271 406.103 689.271 410.597C689.271 413.522 688.522 416.125 687.024 418.408C685.526 420.762 683.457 422.759 680.818 424.4C678.179 426.112 675.04 427.396 671.402 428.252C667.835 429.179 663.948 429.643 659.739 429.643C652.392 429.643 646.792 428.502 642.94 426.219C639.088 423.936 637.162 420.334 637.162 415.412C637.162 412.487 637.947 409.848 639.516 407.494C641.085 405.211 643.118 403.392 645.615 402.037C644.188 401.11 642.976 399.968 641.977 398.613C641.05 397.186 640.586 395.439 640.586 393.37C640.586 390.731 641.157 388.448 642.298 386.522C643.511 384.596 645.116 382.884 647.113 381.386C644.759 379.745 642.869 377.641 641.442 375.073C640.015 372.434 639.302 369.473 639.302 366.192C639.302 363.481 639.801 360.949 640.8 358.595C641.799 356.241 643.225 354.208 645.08 352.496C647.006 350.713 649.36 349.322 652.142 348.323C654.924 347.324 658.098 346.825 661.665 346.825C664.875 346.825 667.764 347.289 670.332 348.216C672.971 349.143 675.218 350.32 677.073 351.747C678.5 350.606 680.426 349.678 682.851 348.965C685.276 348.18 687.951 347.788 690.876 347.788C691.161 349.143 691.304 350.641 691.304 352.282C691.304 353.067 691.268 353.887 691.197 354.743C691.126 355.599 691.019 356.455 690.876 357.311H681.246C682.031 358.524 682.637 359.843 683.065 361.27C683.493 362.697 683.707 364.337 683.707 366.192C683.707 369.117 683.172 371.756 682.102 374.11C681.032 376.464 679.498 378.497 677.501 380.209C675.575 381.85 673.257 383.134 670.546 384.061C667.835 384.917 664.875 385.345 661.665 385.345C658.74 385.345 656.101 385.024 653.747 384.382C652.748 384.953 651.75 385.844 650.751 387.057C649.824 388.198 649.36 389.447 649.36 390.802C649.36 392.086 649.824 393.227 650.751 394.226C651.678 395.153 653.747 395.653 656.957 395.724L671.188 395.938ZM656.743 404.391C653.533 404.32 651.108 405.176 649.467 406.959C647.898 408.742 647.113 410.882 647.113 413.379C647.113 414.948 647.434 416.232 648.076 417.231C648.718 418.23 649.61 419.014 650.751 419.585C651.964 420.227 653.355 420.655 654.924 420.869C656.565 421.154 658.348 421.297 660.274 421.297C665.981 421.297 670.439 420.334 673.649 418.408C676.859 416.553 678.464 414.199 678.464 411.346C678.464 409.206 677.786 407.565 676.431 406.424C675.076 405.283 672.579 404.676 668.941 404.605L656.743 404.391ZM661.665 377.641C665.517 377.641 668.37 376.571 670.225 374.431C672.08 372.291 673.007 369.545 673.007 366.192C673.007 362.768 672.08 359.986 670.225 357.846C668.37 355.635 665.517 354.529 661.665 354.529C657.813 354.529 654.96 355.635 653.105 357.846C651.322 359.986 650.43 362.768 650.43 366.192C650.43 369.545 651.322 372.291 653.105 374.431C654.96 376.571 657.813 377.641 661.665 377.641ZM702.939 356.562H694.593L694.165 355.064L712.569 334.52H713.425V348.109H727.335C727.62 349.322 727.763 350.677 727.763 352.175C727.763 352.96 727.727 353.709 727.656 354.422C727.584 355.135 727.477 355.849 727.335 356.562H713.425V381.6C713.425 384.596 713.532 386.986 713.746 388.769C714.031 390.552 714.459 391.943 715.03 392.942C715.672 393.869 716.492 394.511 717.491 394.868C718.561 395.153 719.88 395.296 721.45 395.296C722.662 395.296 723.804 395.225 724.874 395.082C725.944 394.868 726.907 394.654 727.763 394.44C728.262 395.867 728.547 397.329 728.619 398.827C728.761 400.325 728.833 401.645 728.833 402.786C727.406 403.143 725.908 403.392 724.339 403.535C722.769 403.749 721.093 403.856 719.31 403.856C714.174 403.856 710.143 402.608 707.219 400.111C704.365 397.614 702.939 393.477 702.939 387.699V356.562ZM739.147 324.569C739.932 324.426 740.788 324.319 741.715 324.248C742.714 324.177 743.606 324.141 744.39 324.141C745.175 324.141 746.067 324.177 747.065 324.248C748.064 324.319 748.956 324.426 749.74 324.569V356.455C750.382 355.456 751.167 354.386 752.094 353.245C753.093 352.104 754.27 351.069 755.625 350.142C757.052 349.143 758.657 348.359 760.44 347.788C762.295 347.146 764.328 346.825 766.539 346.825C772.817 346.825 777.453 348.644 780.449 352.282C783.517 355.849 785.05 361.163 785.05 368.225V403C784.266 403.143 783.374 403.25 782.375 403.321C781.448 403.392 780.592 403.428 779.807 403.428C779.023 403.428 778.131 403.392 777.132 403.321C776.205 403.25 775.349 403.143 774.564 403V371.114C774.564 366.049 773.708 362.34 771.996 359.986C770.356 357.561 767.823 356.348 764.399 356.348C762.473 356.348 760.619 356.705 758.835 357.418C757.052 358.06 755.483 359.13 754.127 360.628C752.772 362.055 751.702 363.945 750.917 366.299C750.133 368.653 749.74 371.506 749.74 374.859V403C748.956 403.143 748.064 403.25 747.065 403.321C746.067 403.392 745.175 403.428 744.39 403.428C743.677 403.428 742.821 403.392 741.822 403.321C740.824 403.25 739.932 403.143 739.147 403V324.569ZM800.151 393.049C802.077 393.834 804.181 394.476 806.464 394.975C808.818 395.403 811.136 395.617 813.419 395.617C815.059 395.617 816.629 395.439 818.127 395.082C819.625 394.725 820.909 394.19 821.979 393.477C823.12 392.764 824.012 391.908 824.654 390.909C825.367 389.839 825.724 388.662 825.724 387.378C825.724 385.951 825.438 384.774 824.868 383.847C824.368 382.92 823.655 382.135 822.728 381.493C821.872 380.851 820.837 380.316 819.625 379.888C818.483 379.389 817.235 378.925 815.88 378.497L812.135 377.106C807.569 375.394 804.252 373.468 802.184 371.328C800.115 369.188 799.081 366.299 799.081 362.661C799.081 357.81 800.793 353.958 804.217 351.105C807.712 348.252 812.812 346.825 819.518 346.825C822.3 346.825 825.01 347.11 827.65 347.681C830.36 348.18 832.714 348.787 834.712 349.5C834.569 350.927 834.284 352.353 833.856 353.78C833.499 355.207 833.035 356.526 832.465 357.739C830.895 357.168 829.005 356.633 826.794 356.134C824.654 355.563 822.335 355.278 819.839 355.278C817.199 355.278 814.845 355.742 812.777 356.669C810.779 357.596 809.781 359.237 809.781 361.591C809.781 362.804 810.03 363.838 810.53 364.694C811.029 365.55 811.707 366.299 812.563 366.941C813.419 367.512 814.382 368.011 815.452 368.439C816.593 368.867 817.806 369.295 819.09 369.723L823.798 371.328C825.51 371.899 827.115 372.576 828.613 373.361C830.182 374.146 831.502 375.144 832.572 376.357C833.713 377.498 834.605 378.925 835.247 380.637C835.96 382.278 836.317 384.275 836.317 386.629C836.317 389.268 835.782 391.694 834.712 393.905C833.642 396.045 832.108 397.9 830.111 399.469C828.185 400.967 825.831 402.144 823.049 403C820.267 403.856 817.199 404.284 813.847 404.284C810.423 404.284 807.427 404.034 804.859 403.535C802.291 403.107 799.901 402.501 797.69 401.716C797.832 400.289 798.118 398.863 798.546 397.436C799.045 395.938 799.58 394.476 800.151 393.049ZM874.236 393.049C876.162 393.834 878.266 394.476 880.549 394.975C882.903 395.403 885.221 395.617 887.504 395.617C889.144 395.617 890.714 395.439 892.212 395.082C893.71 394.725 894.994 394.19 896.064 393.477C897.205 392.764 898.097 391.908 898.739 390.909C899.452 389.839 899.809 388.662 899.809 387.378C899.809 385.951 899.523 384.774 898.953 383.847C898.453 382.92 897.74 382.135 896.813 381.493C895.957 380.851 894.922 380.316 893.71 379.888C892.568 379.389 891.32 378.925 889.965 378.497L886.22 377.106C881.654 375.394 878.337 373.468 876.269 371.328C874.2 369.188 873.166 366.299 873.166 362.661C873.166 357.81 874.878 353.958 878.302 351.105C881.797 348.252 886.897 346.825 893.603 346.825C896.385 346.825 899.095 347.11 901.735 347.681C904.445 348.18 906.799 348.787 908.797 349.5C908.654 350.927 908.369 352.353 907.941 353.78C907.584 355.207 907.12 356.526 906.55 357.739C904.98 357.168 903.09 356.633 900.879 356.134C898.739 355.563 896.42 355.278 893.924 355.278C891.284 355.278 888.93 355.742 886.862 356.669C884.864 357.596 883.866 359.237 883.866 361.591C883.866 362.804 884.115 363.838 884.615 364.694C885.114 365.55 885.792 366.299 886.648 366.941C887.504 367.512 888.467 368.011 889.537 368.439C890.678 368.867 891.891 369.295 893.175 369.723L897.883 371.328C899.595 371.899 901.2 372.576 902.698 373.361C904.267 374.146 905.587 375.144 906.657 376.357C907.798 377.498 908.69 378.925 909.332 380.637C910.045 382.278 910.402 384.275 910.402 386.629C910.402 389.268 909.867 391.694 908.797 393.905C907.727 396.045 906.193 397.9 904.196 399.469C902.27 400.967 899.916 402.144 897.134 403C894.352 403.856 891.284 404.284 887.932 404.284C884.508 404.284 881.512 404.034 878.944 403.535C876.376 403.107 873.986 402.501 871.775 401.716C871.917 400.289 872.203 398.863 872.631 397.436C873.13 395.938 873.665 394.476 874.236 393.049ZM960.486 393.477C961.057 394.476 961.556 395.724 961.984 397.222C962.412 398.72 962.662 400.254 962.733 401.823C958.524 403.464 953.709 404.284 948.288 404.284C939.157 404.284 932.274 401.716 927.637 396.58C923 391.373 920.682 384.382 920.682 375.608C920.682 371.542 921.253 367.761 922.394 364.266C923.535 360.771 925.212 357.739 927.423 355.171C929.706 352.603 932.523 350.57 935.876 349.072C939.229 347.574 943.116 346.825 947.539 346.825C950.535 346.825 953.174 347.003 955.457 347.36C957.74 347.717 959.915 348.287 961.984 349.072C961.984 350.285 961.806 351.711 961.449 353.352C961.164 354.921 960.736 356.312 960.165 357.525C956.67 356.312 952.675 355.706 948.181 355.706C942.688 355.706 938.587 357.525 935.876 361.163C933.165 364.801 931.81 369.616 931.81 375.608C931.81 382.456 933.344 387.485 936.411 390.695C939.478 393.834 943.687 395.403 949.037 395.403C951.177 395.403 953.139 395.26 954.922 394.975C956.777 394.69 958.631 394.19 960.486 393.477ZM974.882 324.569C975.666 324.426 976.522 324.319 977.45 324.248C978.448 324.177 979.34 324.141 980.125 324.141C980.909 324.141 981.801 324.177 982.8 324.248C983.798 324.319 984.69 324.426 985.475 324.569V356.455C986.117 355.456 986.901 354.386 987.829 353.245C988.827 352.104 990.004 351.069 991.36 350.142C992.786 349.143 994.391 348.359 996.175 347.788C998.029 347.146 1000.06 346.825 1002.27 346.825C1008.55 346.825 1013.19 348.644 1016.18 352.282C1019.25 355.849 1020.78 361.163 1020.78 368.225V403C1020 403.143 1019.11 403.25 1018.11 403.321C1017.18 403.392 1016.33 403.428 1015.54 403.428C1014.76 403.428 1013.87 403.392 1012.87 403.321C1011.94 403.25 1011.08 403.143 1010.3 403V371.114C1010.3 366.049 1009.44 362.34 1007.73 359.986C1006.09 357.561 1003.56 356.348 1000.13 356.348C998.208 356.348 996.353 356.705 994.57 357.418C992.786 358.06 991.217 359.13 989.862 360.628C988.506 362.055 987.436 363.945 986.652 366.299C985.867 368.653 985.475 371.506 985.475 374.859V403C984.69 403.143 983.798 403.25 982.8 403.321C981.801 403.392 980.909 403.428 980.125 403.428C979.411 403.428 978.555 403.392 977.557 403.321C976.558 403.25 975.666 403.143 974.882 403V324.569ZM1044.77 378.176C1044.91 384.168 1046.44 388.555 1049.37 391.337C1052.36 394.119 1056.75 395.51 1062.53 395.51C1067.59 395.51 1072.41 394.618 1076.97 392.835C1077.54 393.905 1078.01 395.225 1078.36 396.794C1078.72 398.292 1078.93 399.79 1079.01 401.288C1076.65 402.287 1074.05 403.036 1071.2 403.535C1068.41 404.034 1065.31 404.284 1061.89 404.284C1056.89 404.284 1052.61 403.606 1049.05 402.251C1045.48 400.824 1042.52 398.863 1040.17 396.366C1037.88 393.798 1036.21 390.802 1035.14 387.378C1034.07 383.883 1033.53 380.066 1033.53 375.929C1033.53 371.863 1034.03 368.082 1035.03 364.587C1036.1 361.02 1037.7 357.953 1039.84 355.385C1041.98 352.746 1044.66 350.677 1047.87 349.179C1051.15 347.61 1055 346.825 1059.43 346.825C1063.21 346.825 1066.52 347.467 1069.38 348.751C1072.23 350.035 1074.62 351.818 1076.55 354.101C1078.47 356.312 1079.93 358.987 1080.93 362.126C1081.93 365.193 1082.43 368.546 1082.43 372.184C1082.43 373.183 1082.39 374.253 1082.32 375.394C1082.25 376.464 1082.18 377.391 1082.11 378.176H1044.77ZM1071.94 370.258C1071.94 368.261 1071.66 366.37 1071.09 364.587C1070.59 362.732 1069.8 361.127 1068.73 359.772C1067.74 358.417 1066.42 357.347 1064.78 356.562C1063.21 355.706 1061.32 355.278 1059.1 355.278C1054.75 355.278 1051.4 356.598 1049.05 359.237C1046.76 361.876 1045.37 365.55 1044.87 370.258H1071.94ZM1131.51 324.569C1132.29 324.426 1133.18 324.319 1134.18 324.248C1135.18 324.177 1136.04 324.141 1136.75 324.141C1137.53 324.141 1138.39 324.177 1139.32 324.248C1140.32 324.319 1141.21 324.426 1141.99 324.569V401.502C1139.28 402.287 1136.25 402.929 1132.9 403.428C1129.55 403.999 1125.8 404.284 1121.66 404.284C1117.81 404.284 1114.14 403.82 1110.64 402.893C1107.22 401.894 1104.22 400.289 1101.65 398.078C1099.09 395.867 1097.05 393.013 1095.56 389.518C1094.06 386.023 1093.31 381.707 1093.31 376.571C1093.31 372.148 1093.95 368.118 1095.23 364.48C1096.59 360.842 1098.48 357.739 1100.91 355.171C1103.33 352.532 1106.22 350.499 1109.57 349.072C1113 347.645 1116.78 346.932 1120.91 346.932C1122.77 346.932 1124.62 347.075 1126.48 347.36C1128.4 347.645 1130.08 348.002 1131.51 348.43V324.569ZM1131.51 357.418C1130.08 356.847 1128.55 356.419 1126.91 356.134C1125.27 355.849 1123.48 355.706 1121.56 355.706C1118.63 355.706 1116.1 356.241 1113.96 357.311C1111.82 358.381 1110.04 359.843 1108.61 361.698C1107.25 363.553 1106.22 365.764 1105.51 368.332C1104.86 370.829 1104.54 373.575 1104.54 376.571C1104.61 383.348 1106.22 388.198 1109.36 391.123C1112.5 394.048 1116.78 395.51 1122.2 395.51C1124.05 395.51 1125.76 395.439 1127.33 395.296C1128.9 395.082 1130.29 394.797 1131.51 394.44V357.418ZM1158.36 348.109C1159.14 347.966 1160.03 347.859 1161.03 347.788C1162.03 347.717 1162.89 347.681 1163.6 347.681C1164.39 347.681 1165.28 347.717 1166.28 347.788C1167.27 347.859 1168.17 347.966 1168.95 348.109V378.176C1168.95 381.6 1169.27 384.453 1169.91 386.736C1170.56 388.947 1171.52 390.695 1172.8 391.979C1174.09 393.263 1175.66 394.155 1177.51 394.654C1179.37 395.153 1181.51 395.403 1183.93 395.403C1187.57 395.403 1190.67 395.011 1193.24 394.226V348.109C1194.02 347.966 1194.88 347.859 1195.81 347.788C1196.81 347.717 1197.7 347.681 1198.48 347.681C1199.27 347.681 1200.12 347.717 1201.05 347.788C1202.05 347.859 1202.94 347.966 1203.73 348.109V401.288C1201.23 402.001 1198.23 402.679 1194.74 403.321C1191.31 403.963 1187.75 404.284 1184.04 404.284C1180.54 404.284 1177.23 403.963 1174.09 403.321C1171.02 402.75 1168.31 401.538 1165.95 399.683C1163.6 397.828 1161.75 395.225 1160.39 391.872C1159.04 388.519 1158.36 384.097 1158.36 378.604V348.109ZM1220.23 324.569C1221.01 324.426 1221.87 324.319 1222.79 324.248C1223.79 324.177 1224.69 324.141 1225.47 324.141C1226.25 324.141 1227.11 324.177 1228.04 324.248C1229.04 324.319 1229.93 324.426 1230.71 324.569V386.415C1230.71 388.412 1230.89 389.982 1231.25 391.123C1231.6 392.264 1232.07 393.156 1232.64 393.798C1233.28 394.369 1233.99 394.761 1234.78 394.975C1235.63 395.118 1236.53 395.189 1237.45 395.189C1238.1 395.189 1238.81 395.153 1239.59 395.082C1240.45 395.011 1241.16 394.904 1241.73 394.761C1242.38 397.258 1242.7 399.968 1242.7 402.893C1241.7 403.25 1240.49 403.464 1239.06 403.535C1237.63 403.678 1236.31 403.749 1235.1 403.749C1233.03 403.749 1231.11 403.499 1229.32 403C1227.54 402.501 1225.97 401.68 1224.61 400.539C1223.26 399.398 1222.19 397.864 1221.4 395.938C1220.62 394.012 1220.23 391.622 1220.23 388.769V324.569ZM1252.1 324.569C1252.88 324.426 1253.74 324.319 1254.66 324.248C1255.66 324.177 1256.56 324.141 1257.34 324.141C1258.12 324.141 1258.98 324.177 1259.91 324.248C1260.91 324.319 1261.8 324.426 1262.58 324.569V386.415C1262.58 388.412 1262.76 389.982 1263.12 391.123C1263.47 392.264 1263.94 393.156 1264.51 393.798C1265.15 394.369 1265.86 394.761 1266.65 394.975C1267.5 395.118 1268.4 395.189 1269.32 395.189C1269.97 395.189 1270.68 395.153 1271.46 395.082C1272.32 395.011 1273.03 394.904 1273.6 394.761C1274.25 397.258 1274.57 399.968 1274.57 402.893C1273.57 403.25 1272.36 403.464 1270.93 403.535C1269.5 403.678 1268.18 403.749 1266.97 403.749C1264.9 403.749 1262.98 403.499 1261.19 403C1259.41 402.501 1257.84 401.68 1256.48 400.539C1255.13 399.398 1254.06 397.864 1253.27 395.938C1252.49 394.012 1252.1 391.622 1252.1 388.769V324.569ZM1292.1 378.176C1292.24 384.168 1293.78 388.555 1296.7 391.337C1299.7 394.119 1304.08 395.51 1309.86 395.51C1314.93 395.51 1319.74 394.618 1324.31 392.835C1324.88 393.905 1325.34 395.225 1325.7 396.794C1326.05 398.292 1326.27 399.79 1326.34 401.288C1323.99 402.287 1321.38 403.036 1318.53 403.535C1315.75 404.034 1312.64 404.284 1309.22 404.284C1304.23 404.284 1299.95 403.606 1296.38 402.251C1292.81 400.824 1289.85 398.863 1287.5 396.366C1285.22 393.798 1283.54 390.802 1282.47 387.378C1281.4 383.883 1280.86 380.066 1280.86 375.929C1280.86 371.863 1281.36 368.082 1282.36 364.587C1283.43 361.02 1285.04 357.953 1287.18 355.385C1289.32 352.746 1291.99 350.677 1295.2 349.179C1298.48 347.61 1302.34 346.825 1306.76 346.825C1310.54 346.825 1313.86 347.467 1316.71 348.751C1319.56 350.035 1321.95 351.818 1323.88 354.101C1325.8 356.312 1327.27 358.987 1328.27 362.126C1329.26 365.193 1329.76 368.546 1329.76 372.184C1329.76 373.183 1329.73 374.253 1329.66 375.394C1329.58 376.464 1329.51 377.391 1329.44 378.176H1292.1ZM1319.28 370.258C1319.28 368.261 1318.99 366.37 1318.42 364.587C1317.92 362.732 1317.14 361.127 1316.07 359.772C1315.07 358.417 1313.75 357.347 1312.11 356.562C1310.54 355.706 1308.65 355.278 1306.44 355.278C1302.09 355.278 1298.73 356.598 1296.38 359.237C1294.1 361.876 1292.71 365.55 1292.21 370.258H1319.28ZM1343.64 348.109C1344.42 347.966 1345.17 347.859 1345.88 347.788C1346.6 347.717 1347.35 347.681 1348.13 347.681C1348.92 347.681 1349.7 347.717 1350.49 347.788C1351.27 347.859 1351.98 347.966 1352.63 348.109C1352.84 349.179 1353.05 350.606 1353.27 352.389C1353.48 354.101 1353.59 355.563 1353.59 356.776C1355.09 354.351 1357.05 352.246 1359.47 350.463C1361.97 348.68 1365.14 347.788 1369 347.788C1369.57 347.788 1370.14 347.824 1370.71 347.895C1371.35 347.895 1371.89 347.931 1372.31 348.002C1372.46 348.644 1372.56 349.322 1372.63 350.035C1372.71 350.748 1372.74 351.497 1372.74 352.282C1372.74 353.138 1372.67 354.03 1372.53 354.957C1372.46 355.884 1372.35 356.776 1372.21 357.632C1371.64 357.489 1371.03 357.418 1370.39 357.418C1369.82 357.418 1369.35 357.418 1369 357.418C1367.07 357.418 1365.22 357.703 1363.43 358.274C1361.72 358.773 1360.15 359.701 1358.72 361.056C1357.37 362.411 1356.26 364.266 1355.41 366.62C1354.62 368.974 1354.23 372.006 1354.23 375.715V403C1353.45 403.143 1352.55 403.25 1351.56 403.321C1350.63 403.392 1349.77 403.428 1348.99 403.428C1348.2 403.428 1347.31 403.392 1346.31 403.321C1345.38 403.25 1344.49 403.143 1343.64 403V348.109Z" fill="white"/>
</svg>
