<svg width="512" height="512" viewBox="0 0 512 512" fill="none" xmlns="http://www.w3.org/2000/svg">
<path d="M140.5 341.739C166.661 376.641 208.531 399.25 255.72 399.25C334.989 399.25 399.25 335.451 399.25 256.75" stroke="black" stroke-width="11"/>
<path d="M190.609 261.24C184.938 259.514 184.938 251.486 190.609 249.76L232.896 236.889C234.809 236.307 236.307 234.809 236.889 232.896L249.76 190.609C251.486 184.938 259.514 184.938 261.24 190.609L274.111 232.896C274.693 234.809 276.191 236.307 278.104 236.889L320.391 249.76C326.062 251.486 326.062 259.514 320.391 261.24L278.104 274.111C276.191 274.693 274.693 276.191 274.111 278.104L261.24 320.391C259.514 326.062 251.486 326.062 249.76 320.391L236.889 278.104C236.307 276.191 234.809 274.693 232.896 274.111L190.609 261.24Z" fill="black"/>
<circle cx="255.5" cy="255.5" r="242.5" stroke="black" stroke-width="10"/>
</svg>
